<svg width="291" height="152" viewBox="0 0 291 152" fill="none" xmlns="http://www.w3.org/2000/svg">
<g clip-path="url(#clip0_153_560)">
<path d="M150.741 3.10682C150.214 1.83193 148.971 1.00032 147.591 1C15.3182 1 1 55.832 1 79.409C1 109.995 24.291 130.545 58.9545 130.545C102.734 130.545 111.905 88.8862 116.827 66.5022C121.613 43.7171 133.175 22.9113 149.998 6.81581C150.972 5.84294 151.265 4.3798 150.741 3.10682Z" fill="#4CAF50"/>
<path d="M4.41042 151C2.52764 151 1.00122 149.474 1.00122 147.591C1.00122 127.32 36.1489 62.2816 91.5603 35.4317C93.2548 34.611 95.2939 35.3189 96.1149 37.0135C96.9357 38.708 96.2277 40.7471 94.5332 41.5681C38.5762 68.6841 7.8193 131.657 7.8193 147.591C7.8193 149.474 6.2932 151 4.41042 151Z" fill="#388E3C"/>
</g>
<path d="M140.551 103V50.6364H151.622V93.8722H174.071V103H140.551ZM199.096 103.767C195.056 103.767 191.579 102.949 188.664 101.312C185.766 99.6591 183.533 97.3239 181.965 94.3068C180.397 91.2727 179.613 87.6847 179.613 83.5426C179.613 79.5028 180.397 75.9574 181.965 72.9062C183.533 69.8551 185.741 67.4773 188.587 65.7727C191.451 64.0682 194.809 63.2159 198.661 63.2159C201.252 63.2159 203.664 63.6335 205.897 64.4688C208.147 65.2869 210.107 66.5227 211.778 68.1761C213.465 69.8295 214.778 71.9091 215.715 74.4148C216.653 76.9034 217.121 79.8182 217.121 83.1591V86.1506H183.96V79.4006H206.869C206.869 77.8324 206.528 76.4432 205.846 75.233C205.164 74.0227 204.218 73.0767 203.008 72.3949C201.815 71.696 200.425 71.3466 198.84 71.3466C197.187 71.3466 195.721 71.7301 194.442 72.4972C193.181 73.2472 192.192 74.2614 191.477 75.5398C190.761 76.8011 190.394 78.2074 190.377 79.7585V86.1761C190.377 88.1193 190.735 89.7983 191.451 91.2131C192.184 92.6278 193.215 93.7188 194.545 94.4858C195.874 95.2528 197.451 95.6364 199.275 95.6364C200.485 95.6364 201.593 95.4659 202.599 95.125C203.604 94.7841 204.465 94.2727 205.181 93.5909C205.897 92.9091 206.442 92.0739 206.817 91.0852L216.891 91.75C216.38 94.1705 215.332 96.2841 213.746 98.0909C212.178 99.8807 210.15 101.278 207.661 102.284C205.19 103.273 202.335 103.767 199.096 103.767ZM235.428 103.741C232.923 103.741 230.69 103.307 228.729 102.438C226.769 101.551 225.218 100.247 224.076 98.5256C222.951 96.7869 222.388 94.6222 222.388 92.0312C222.388 89.8494 222.789 88.017 223.59 86.5341C224.391 85.0511 225.482 83.858 226.863 82.9545C228.244 82.0511 229.812 81.3693 231.567 80.9091C233.34 80.4489 235.198 80.125 237.141 79.9375C239.425 79.6989 241.266 79.4773 242.664 79.2727C244.062 79.0511 245.076 78.7273 245.707 78.3011C246.337 77.875 246.653 77.2443 246.653 76.4091V76.2557C246.653 74.6364 246.141 73.3835 245.119 72.4972C244.113 71.6108 242.681 71.1676 240.823 71.1676C238.863 71.1676 237.303 71.6023 236.144 72.4716C234.985 73.3239 234.218 74.3977 233.843 75.6932L223.769 74.875C224.281 72.4886 225.286 70.4261 226.786 68.6875C228.286 66.9318 230.221 65.5852 232.59 64.6477C234.977 63.6932 237.738 63.2159 240.874 63.2159C243.056 63.2159 245.144 63.4716 247.138 63.983C249.15 64.4943 250.931 65.2869 252.482 66.3608C254.05 67.4347 255.286 68.8153 256.19 70.5028C257.093 72.1733 257.545 74.1761 257.545 76.5114V103H247.215V97.554H246.908C246.278 98.7812 245.434 99.8636 244.377 100.801C243.32 101.722 242.05 102.446 240.567 102.974C239.085 103.486 237.371 103.741 235.428 103.741ZM238.548 96.2244C240.15 96.2244 241.565 95.9091 242.792 95.2784C244.019 94.6307 244.982 93.7614 245.681 92.6705C246.38 91.5795 246.729 90.3437 246.729 88.9631V84.7955C246.388 85.017 245.92 85.2216 245.323 85.4091C244.744 85.5795 244.087 85.7415 243.354 85.8949C242.621 86.0312 241.888 86.1591 241.156 86.2784C240.423 86.3807 239.758 86.4744 239.161 86.5597C237.883 86.7472 236.766 87.0455 235.812 87.4545C234.857 87.8636 234.116 88.4176 233.587 89.1165C233.059 89.7983 232.795 90.6506 232.795 91.6733C232.795 93.1562 233.332 94.2898 234.406 95.0739C235.496 95.8409 236.877 96.2244 238.548 96.2244ZM287.114 63.7273V71.9091H262.876V63.7273H287.114ZM268.424 103V60.8892C268.424 58.0426 268.978 55.6818 270.086 53.8068C271.211 51.9318 272.745 50.5256 274.688 49.5881C276.631 48.6506 278.839 48.1818 281.31 48.1818C282.981 48.1818 284.506 48.3097 285.887 48.5653C287.285 48.821 288.325 49.0511 289.006 49.2557L287.063 57.4375C286.637 57.3011 286.109 57.1733 285.478 57.054C284.864 56.9347 284.234 56.875 283.586 56.875C281.984 56.875 280.867 57.25 280.237 58C279.606 58.733 279.29 59.7642 279.29 61.0938V103H268.424Z" fill="black"/>
<defs>
<clipPath id="clip0_153_560">
<rect width="150" height="150" fill="white" transform="translate(1 1)"/>
</clipPath>
</defs>
</svg>
