<svg width="150" height="150" viewBox="0 0 150 150" fill="none" xmlns="http://www.w3.org/2000/svg">
<g clip-path="url(#clip0_153_557)">
<path d="M149.741 2.10682C149.214 0.831925 147.971 0.000319602 146.591 0C14.3182 0 0 54.832 0 78.409C0 108.995 23.291 129.545 57.9545 129.545C101.734 129.545 110.905 87.8862 115.827 65.5022C120.613 42.7171 132.175 21.9113 148.998 5.81581C149.972 4.84294 150.265 3.3798 149.741 2.10682Z" fill="#4CAF50"/>
<path d="M3.41115 150C1.52837 150 0.00195312 148.474 0.00195312 146.591C0.00195312 126.32 35.1496 61.2816 90.561 34.4318C92.2555 33.611 94.2946 34.319 95.1157 36.0135C95.9364 37.708 95.2285 39.7471 93.5339 40.5681C37.577 67.6842 6.82003 130.657 6.82003 146.591C6.82003 148.474 5.29393 150 3.41115 150Z" fill="#388E3C"/>
</g>
<defs>
<clipPath id="clip0_153_557">
<rect width="150" height="150" fill="white"/>
</clipPath>
</defs>
</svg>
