<svg width="77" height="78" viewBox="0 0 77 78" fill="none" xmlns="http://www.w3.org/2000/svg">
<circle cx="38.3529" cy="38.7646" r="38.3529" fill="#2F89CE"/>
<path d="M17.9313 39.4819L26.7488 42.7698L30.1862 53.829C30.3356 54.5762 31.2323 54.7257 31.8301 54.2773L36.7619 50.2422C37.2102 49.7939 37.9575 49.7939 38.5553 50.2422L47.3728 56.6685C47.9706 57.1169 48.8673 56.818 49.0167 56.0707L55.5925 24.6864C55.7419 23.9392 54.9947 23.1919 54.2475 23.4908L17.9313 37.539C17.0346 37.8379 17.0346 39.183 17.9313 39.4819ZM29.7378 41.1258L47.0739 30.5149C47.3728 30.3655 47.6717 30.8138 47.3728 30.9633L33.1751 44.2642C32.7268 44.7126 32.2784 45.3104 32.2784 46.0576L31.8301 49.6444C31.8301 50.0928 31.0828 50.2422 30.9334 49.6444L29.14 43.0686C28.6916 42.3214 28.9906 41.4247 29.7378 41.1258Z" fill="white"/>
</svg>
