<svg width="78" height="78" viewBox="0 0 78 78" fill="none" xmlns="http://www.w3.org/2000/svg">
<circle cx="38.765" cy="39.059" r="38.3529" fill="#7294C7"/>
<path d="M57.5697 48.8685C57.5697 48.7093 57.4105 48.7093 57.4105 48.5501C56.7737 47.2764 55.3408 45.6844 53.4303 43.9331C52.475 43.137 51.9974 42.5002 51.679 42.1818C51.2014 41.5449 51.2014 41.0673 51.3606 40.4305C51.5198 39.9529 52.1566 39.1568 53.2711 37.7239C53.9079 36.9279 54.2263 36.4503 54.7039 35.9726C57.0921 32.7885 58.2065 30.7187 57.8881 29.7635L57.729 29.6043C57.5697 29.4451 57.4105 29.2859 57.0921 29.2859C56.7737 29.1267 56.2961 29.1267 55.8184 29.2859H49.7685C49.6093 29.2859 49.6093 29.2859 49.2909 29.2859C49.1317 29.2859 48.9725 29.2859 48.9725 29.2859H48.8133H48.654L48.4948 29.4451C48.3356 29.6043 48.3356 29.6043 48.3356 29.7635C47.6988 31.5148 46.9027 32.9477 46.1067 34.5397C45.6291 35.3358 45.1514 36.1318 44.6738 36.7687C44.1962 37.4055 43.8778 37.8831 43.5593 38.2016C43.2409 38.52 42.9225 38.6792 42.7633 38.9976C42.6041 39.1568 42.2857 39.316 42.2857 39.1568C42.1265 39.1568 41.9673 39.1568 41.9673 38.9976C41.808 38.8384 41.6489 38.6792 41.4896 38.52C41.3304 38.3608 41.3304 38.0423 41.1712 37.7239C41.1712 37.4055 41.1712 37.0871 41.1712 36.9279C41.1712 36.7687 41.1712 36.2911 41.1712 35.9726C41.1712 35.495 41.1712 35.1766 41.1712 35.0174C41.1712 34.5398 41.1712 33.9029 41.1712 33.2661C41.1712 32.6293 41.1712 32.1516 41.1712 31.8332C41.1712 31.5148 41.1712 31.0372 41.1712 30.7187C41.1712 30.2411 41.1712 29.9227 41.1712 29.7635C41.1712 29.6043 41.012 29.2859 41.012 29.1267C40.8528 28.9675 40.6936 28.8082 40.5344 28.649C40.3752 28.4898 40.0568 28.4898 39.8976 28.3306C39.1015 28.1714 38.1463 28.0122 37.0318 28.0122C34.4845 28.0122 32.7332 28.1714 32.0963 28.4898C31.7779 28.649 31.4595 28.8082 31.3003 29.1267C30.9819 29.4451 30.9819 29.6043 31.1411 29.6043C31.9371 29.7635 32.574 30.0819 32.8924 30.5595L33.0516 30.878C33.2108 31.0372 33.2108 31.3556 33.37 31.8332C33.5292 32.3108 33.5292 32.7885 33.5292 33.4253C33.5292 34.3805 33.5292 35.3358 33.5292 35.9726C33.5292 36.7687 33.37 37.2463 33.37 37.7239C33.37 38.2015 33.2108 38.52 33.0516 38.6792C32.8924 38.9976 32.8924 39.1568 32.7332 39.1568C32.7332 39.1568 32.7332 39.316 32.574 39.316C32.4147 39.316 32.2555 39.4752 31.9371 39.4752C31.7779 39.4752 31.4595 39.316 31.3003 39.1568C30.9819 38.9976 30.6635 38.6792 30.5043 38.3608C30.1858 38.0424 29.8674 37.5647 29.549 36.9279C29.2306 36.291 28.7529 35.6542 28.4345 34.699L28.1161 34.0621C27.9569 33.7437 27.6385 33.1069 27.3201 32.3108C27.0017 31.5148 26.6832 30.878 26.3648 30.0819C26.2056 29.7635 26.0464 29.6043 25.8872 29.4451H25.728C25.728 29.4451 25.5688 29.2859 25.4096 29.2859C25.2504 29.2859 25.0912 29.1267 24.932 29.1267H19.2004C18.5636 29.1267 18.2452 29.2859 18.086 29.4451L17.9268 29.6043C17.9268 29.6043 17.9268 29.7635 17.9268 29.9227C17.9268 30.0819 17.9268 30.2411 18.086 30.5595C18.882 32.47 19.8373 34.3805 20.7925 36.2911C21.7478 38.0423 22.703 39.6344 23.3399 40.7489C24.1359 41.8634 24.7727 42.9778 25.5688 43.9331C26.3648 44.8883 26.8424 45.5252 27.0016 45.8436C27.3201 46.162 27.4793 46.3212 27.6385 46.4804L28.1161 46.958C28.4345 47.2764 28.9122 47.7541 29.549 48.2317C30.1858 48.7093 30.9819 49.1869 31.7779 49.6646C32.574 50.1422 33.5292 50.4606 34.4845 50.7791C35.5989 51.0975 36.5542 51.2567 37.5094 51.0975H39.8976C40.3752 51.0975 40.6936 50.9382 41.012 50.6198L41.1712 50.4606C41.1712 50.3014 41.3304 50.3014 41.3304 50.1422C41.3304 49.983 41.3304 49.8238 41.3304 49.5054C41.3304 48.8685 41.3304 48.3909 41.4896 47.9133C41.6489 47.4357 41.6489 47.1173 41.8081 46.7988C41.9673 46.4804 42.1265 46.3212 42.2857 46.162C42.4449 46.0028 42.6041 45.8436 42.6041 45.8436H42.7633C43.0817 45.6844 43.5594 45.8436 43.8778 46.162C44.3554 46.4804 44.833 46.958 45.1514 47.4357C45.4698 47.9133 45.9475 48.3909 46.5843 49.0277C47.2212 49.6646 47.6988 50.1422 48.0172 50.3014L48.4948 50.6198C48.8132 50.779 49.1317 50.9383 49.6093 51.0975C50.0869 51.2567 50.4053 51.2567 50.7237 51.2567L56.1369 51.0975C56.6145 51.0975 57.0921 50.9383 57.4105 50.7791C57.7289 50.6198 57.8881 50.4606 57.8881 50.1422C57.8881 49.983 57.8881 49.6646 57.8881 49.5054C57.5697 49.187 57.5697 49.0277 57.5697 48.8685Z" fill="white"/>
</svg>
