<svg width="78" height="78" viewBox="0 0 78 78" fill="none" xmlns="http://www.w3.org/2000/svg">
<circle cx="39.1772" cy="39.059" r="38.3529" fill="#F40000"/>
<path d="M55.8855 36.9749C55.8855 36.231 55.7616 35.3633 55.7616 34.3715C55.6376 33.3798 55.5136 32.388 55.3896 31.5202C55.1417 30.5285 54.7698 29.7847 54.026 29.1648C53.4061 28.545 52.5383 28.1731 51.6706 28.0491C48.8193 27.6772 44.6043 27.5532 38.9018 27.5532C33.1992 27.5532 28.8602 27.6772 26.1329 28.0491C25.2651 28.1731 24.3974 28.545 23.7775 29.1648C23.1577 29.7847 22.6618 30.5285 22.4138 31.5202C22.1659 32.388 22.0419 33.2558 22.0419 34.3715C21.918 35.3633 21.918 36.231 21.918 36.9749C21.918 37.7187 21.918 38.5865 21.918 39.8262C21.918 41.0658 21.918 42.0576 21.918 42.6775C21.918 43.4213 22.0419 44.2891 22.0419 45.2808C22.1659 46.2726 22.2899 47.2643 22.4138 48.1321C22.6618 49.1238 23.0337 49.8677 23.7775 50.4875C24.3974 51.1074 25.2651 51.4793 26.1329 51.6032C28.9842 51.9751 33.1992 52.0991 38.9018 52.0991C44.6043 52.0991 48.9432 51.9751 51.6706 51.6032C52.5383 51.4793 53.4061 51.1074 54.026 50.4875C54.6458 49.8677 55.1417 49.1238 55.3896 48.1321C55.6376 47.2643 55.7616 46.3965 55.7616 45.2808C55.8855 44.2891 55.8855 43.4213 55.8855 42.6775C55.8855 41.9336 55.8855 41.0658 55.8855 39.8262C55.8855 38.5865 55.8855 37.5947 55.8855 36.9749ZM45.4721 40.8179L35.6785 46.8924C35.5546 47.0164 35.3066 47.1403 35.0587 47.1403C34.8108 47.1403 34.6868 47.1403 34.4389 47.0164C34.0669 46.7684 33.819 46.3965 33.819 45.9007V33.6277C33.819 33.1318 34.0669 32.7599 34.4389 32.512C34.8108 32.264 35.3066 32.264 35.6785 32.512L45.4721 38.5865C45.844 38.8344 46.0919 39.2063 46.0919 39.5782C46.0919 39.9501 45.844 40.57 45.4721 40.8179Z" fill="white"/>
</svg>
